<svg width="28" height="28" viewBox="0 0 28 28" fill="none" xmlns="http://www.w3.org/2000/svg">
<path d="M1 27L2.83631 20.3234C1.70317 18.3691 1.10776 16.1537 1.10885 13.8819C1.11212 6.77958 6.91928 1 14.0544 1C17.517 1.00108 20.7672 2.34333 23.212 4.77867C25.6557 7.214 27.0011 10.451 27 13.8938C26.9967 20.9973 21.1896 26.7768 14.0544 26.7768C11.8883 26.7758 9.75375 26.2352 7.86302 25.2082L1 27ZM8.18086 22.8758C10.0052 23.9537 11.7468 24.5993 14.0501 24.6004C19.9802 24.6004 24.811 19.7969 24.8143 13.8917C24.8165 7.9745 20.0085 3.1775 14.0588 3.17533C8.12426 3.17533 3.29674 7.97883 3.29457 13.883C3.29348 16.2934 4.00318 18.0982 5.19509 19.9865L4.10768 23.9385L8.18086 22.8758ZM20.5756 16.9564C20.4951 16.8221 20.2796 16.7419 19.9552 16.5805C19.6319 16.4191 18.0416 15.6402 17.7444 15.5329C17.4484 15.4257 17.2329 15.3715 17.0162 15.6943C16.8007 16.0161 16.1803 16.7419 15.992 16.9564C15.8036 17.1709 15.6142 17.198 15.291 17.0366C14.9677 16.8752 13.9249 16.5361 12.6894 15.4387C11.7283 14.585 11.0785 13.5309 10.8901 13.2081C10.7018 12.8863 10.8706 12.7119 11.0316 12.5516C11.1775 12.4075 11.3549 12.1757 11.5171 11.9872C11.6815 11.8008 11.7348 11.6665 11.8437 11.4509C11.9514 11.2364 11.8981 11.0479 11.8165 10.8865C11.7348 10.7262 11.0883 9.14125 10.8194 8.49667C10.556 7.86942 10.2893 7.95392 10.0912 7.94417L9.47074 7.93333C9.25521 7.93333 8.90471 8.0135 8.60864 8.33633C8.31257 8.65917 7.4766 9.437 7.4766 11.0219C7.4766 12.6068 8.63585 14.1376 8.79695 14.3521C8.95914 14.5666 11.0774 17.8188 14.3222 19.213C15.0939 19.5445 15.697 19.7428 16.1661 19.8912C16.9411 20.136 17.6465 20.1013 18.2038 20.019C18.8253 19.9269 20.1174 19.2401 20.3873 18.4883C20.6573 17.7353 20.6573 17.0907 20.5756 16.9564Z" fill="white"/>
</svg>
